<?xml version="1.0" encoding="UTF-8"?>
<svg id="Layer_1" data-name="Layer 1" xmlns="http://www.w3.org/2000/svg" viewBox="0 0 577.21 363.46">
  <defs>
    <style>
      .cls-1, .cls-2 {
        fill: #fff;
      }

      .cls-3 {
        letter-spacing: 0em;
      }

      .cls-2 {
        font-family: VarelaRound-Regular, 'Varela Round';
        font-size: 227.27px;
      }

      .cls-4 {
        letter-spacing: 0em;
      }
    </style>
  </defs>
  <text class="cls-2" transform="translate(0 245.71)"><tspan class="cls-3" x="0" y="0">A</tspan><tspan class="cls-4" x="168.18" y="0">nki</tspan></text>
  <path class="cls-1" d="m482.51,88.41v186.64l94.7,88.41V0l-94.7,88.41Zm80.97,166.81c-2.73,1.21-5.65,2.19-8.75,2.95-3.11.76-6.48,1.14-10.11,1.14-2.73,0-5.95-.27-9.66-.8-3.72-.53-7.35-1.74-10.91-3.64-3.56-1.89-6.55-4.89-8.98-8.98-2.43-4.09-3.64-9.62-3.64-16.59v-70.46h-16.14c-2.88,0-4.32-1.44-4.32-4.32,0-1.51.68-2.8,2.05-3.86l30.91-30.23c.3-.3.8-.72,1.48-1.25.68-.53,1.48-.8,2.39-.8,1.21,0,2.23.45,3.07,1.36.83.91,1.25,1.97,1.25,3.18v18.18h25.68c2.57,0,4.69.83,6.36,2.5,1.67,1.67,2.5,3.79,2.5,6.36,0,2.43-.83,4.51-2.5,6.25-1.67,1.74-3.79,2.61-6.36,2.61h-25.68v68.64c0,4.4.83,7.58,2.5,9.55,1.67,1.97,3.67,3.15,6.02,3.52,2.35.38,4.43.57,6.25.57,3.64,0,6.32-.34,8.07-1.02,1.74-.68,3.6-1.02,5.57-1.02,2.12,0,4.01.76,5.68,2.27,1.66,1.52,2.5,3.49,2.5,5.91,0,3.49-1.74,6.14-5.23,7.95Z"/>
</svg>